<?xml version="1.0" encoding="UTF-8"?>
<svg width="38px" height="38px" viewBox="0 0 38 38" version="1.1" xmlns="http://www.w3.org/2000/svg" xmlns:xlink="http://www.w3.org/1999/xlink">
    <title>编组 2备份</title>
    <defs>
        <linearGradient x1="50%" y1="0%" x2="50%" y2="100%" id="linearGradient-1">
            <stop stop-color="#FFFFFF" offset="0%"></stop>
            <stop stop-color="#FFFFFF" stop-opacity="0.5" offset="100%"></stop>
        </linearGradient>
    </defs>
    <g id="页面-1" stroke="none" stroke-width="1" fill="none" fill-rule="evenodd">
        <g id="1" transform="translate(-317.000000, -287.000000)">
            <g id="编组-2备份" transform="translate(317.000000, 287.000000)">
                <circle id="蒙版" stroke-opacity="0.5" stroke="#FFFFFF" stroke-width="2" fill-opacity="0.8" fill="#01BF8E" cx="19" cy="19" r="18"></circle>
                <path d="M18.999215,10 C23.2369605,10 26.6848365,13.3751355 26.6825024,17.5236714 C26.6825024,20.3655399 25.3153694,22.8241747 22.8258536,24.1423422 C26.9935006,25.3075079 30.4748979,28.6168043 32.0001517,32.7033188 C28.6281303,35.9834955 24.0475628,38 19.0018527,38 C13.9547505,38 9.3730476,35.9823827 6.00051799,32.7002559 C7.49387817,28.597562 10.8802586,25.3093986 15.0479006,24.1423422 C12.5584181,22.8241747 11.3113594,20.3678065 11.3113594,17.5236714 C11.3113594,13.3751355 14.7592354,10 18.999215,10 Z" id="形状结合" fill="url(#linearGradient-1)"></path>
            </g>
        </g>
    </g>
</svg>