<?xml version="1.0" encoding="UTF-8"?>
<svg width="18px" height="18px" viewBox="0 0 18 18" version="1.1" xmlns="http://www.w3.org/2000/svg" xmlns:xlink="http://www.w3.org/1999/xlink">
    <title>全科备份</title>
    <g id="页面-1" stroke="none" stroke-width="1" fill="none" fill-rule="evenodd">
        <g id="5" transform="translate(-36.000000, -269.000000)" fill-rule="nonzero">
            <g id="全科备份" transform="translate(36.000000, 269.000000)">
                <rect id="矩形" fill="#000000" opacity="0" x="0" y="0" width="18" height="18"></rect>
                <path d="M14.5499766,15.5469902 L3.4783418,15.5566406 C2.84554687,15.5566406 2.331,15.0420762 2.331,14.4093516 L2.331,6.20312695 C2.331,5.57049023 2.84554687,5.05576758 3.4783418,5.05576758 L14.5499941,5.04608203 C15.1827188,5.04608203 15.6972832,5.56082227 15.6972832,6.19347656 L15.6972832,14.3997012 C15.6972832,15.0324258 15.1827188,15.5469902 14.5499766,15.5469902 Z M3.4783418,6.20312695 L3.4783418,14.4093516 L14.55075,14.3997012 L14.5499766,6.20312695 L3.4783418,6.20312695 Z" id="形状" fill="#01BF8E"></path>
                <path d="M11.8876641,9.68414062 L9.61678125,9.68414062 L9.61678125,7.42964063 L8.38877344,7.42964063 L8.38877344,9.68414062 L6.14058398,9.68414062 L6.14058398,10.912166 L8.38875586,10.912166 L8.38875586,13.1730645 L9.61676367,13.1730645 L9.61676367,10.912166 L11.8876641,10.912166 L11.8876641,9.68414062 L11.8876641,9.68414062 Z M5.11514648,5.08058789 L5.11514648,3.62708789 C5.11514648,2.99441602 5.62967578,2.47971094 6.2624707,2.47971094 L11.7658301,2.47971094 C12.3985547,2.47971094 12.9131191,2.99443359 12.9131191,3.62708789 L12.9131191,5.0559082 M6.2624707,3.62708789 L6.2624707,5.0559082 L11.7666211,5.0559082 L11.7658301,3.62708789 L6.2624707,3.62708789 Z" id="形状" fill="#01BF8E"></path>
            </g>
        </g>
    </g>
</svg>