<?xml version="1.0" encoding="UTF-8"?>
<svg width="58px" height="58px" viewBox="0 0 58 58" version="1.1" xmlns="http://www.w3.org/2000/svg" xmlns:xlink="http://www.w3.org/1999/xlink">
    <title>头像备份</title>
    <defs>
        <linearGradient x1="50%" y1="100%" x2="50%" y2="0%" id="linearGradient-1">
            <stop stop-color="#01BF8E" offset="0%"></stop>
            <stop stop-color="#B3ECDD" offset="100%"></stop>
        </linearGradient>
        <circle id="path-2" cx="29" cy="29" r="29"></circle>
        <linearGradient x1="14.8836487%" y1="73.9007158%" x2="62.6461925%" y2="25.9227348%" id="linearGradient-4">
            <stop stop-color="#879392" offset="0%"></stop>
            <stop stop-color="#4F5A59" offset="100%"></stop>
        </linearGradient>
    </defs>
    <g id="页面-1" stroke="none" stroke-width="1" fill="none" fill-rule="evenodd">
        <g id="1" transform="translate(-20.000000, -108.000000)">
            <g id="头像备份" transform="translate(20.000000, 108.000000)">
                <mask id="mask-3" fill="white">
                    <use xlink:href="#path-2"></use>
                </mask>
                <use id="蒙版" fill="url(#linearGradient-1)" fill-rule="nonzero" xlink:href="#path-2"></use>
                <g id="资源-2" mask="url(#mask-3)" fill-rule="nonzero">
                    <g transform="translate(-15.000000, 4.000000)">
                        <path d="M37.9439156,5.2386571 L48.3288038,7.91344052 C48.3288038,7.91344052 49.8316365,14.7307185 46.4803011,16.3851284 C43.1289657,18.0395384 48.4452595,28.8976433 46.4803011,34.6760627 C44.5153427,40.4544822 36.507629,40.2141768 32.087859,40.7446971 C19.2647957,42.2789544 15.2036353,34.3673628 18.5642132,29.1545851 C21.4589684,24.6738146 24.3574207,27.359689 25.4036732,25.7829162 C26.5275629,24.0933847 27.0007796,20.215226 27.3556921,19.5941291 C29.032284,16.6513128 33.4132355,17.5607761 34.4835185,14.4552916 C35.3097992,12.0319045 35.4225579,11.8304178 35.6794998,10.3516156 C36.0103818,8.41808176 37.9439156,5.2386571 37.9439156,5.2386571 L37.9439156,5.2386571 Z M53.944555,11.5161723 L58.4086891,12.0744201 C58.4086891,12.0744201 57.8097742,25.3836396 52.4195403,27.1970208 C48.0570739,28.6591864 46.748334,26.3430125 46.748334,26.3430125 L53.944555,11.5161723 Z" id="形状结合" fill="url(#linearGradient-4)"></path>
                        <path d="M36.0085333,25.8272803 C36.0085333,25.8272803 43.1308142,23.3835597 50.4028238,25.7089761 C57.6748335,28.0343925 53.7800383,35.9515296 53.7800383,35.9515296 L54.3493771,88.1735796 L42.3193215,88.6930089 L36.0085333,25.8272803 Z" id="路径" fill="#42BDA3"></path>
                        <path d="M12.6939052,55.1489261 L33.163255,55.1489261 C39.2383872,55.1489261 44.163255,60.0737939 44.163255,66.1489261 L44.163255,76.2370846 C44.163255,82.3122169 39.2383872,87.2370846 33.163255,87.2370846 L12.6939052,87.2370846 C6.61877299,87.2370846 1.69390524,82.3122169 1.69390524,76.2370846 L1.69390524,66.1489261 C1.69390524,60.0737939 6.61877299,55.1489261 12.6939052,55.1489261 Z" id="矩形" fill="#9FDBDD" transform="translate(22.928580, 71.193005) rotate(6.560000) translate(-22.928580, -71.193005) "></path>
                        <path d="M30.0803851,58.5088081 L16.1833417,51.0408572 L15.353364,52.3902642 C15.353364,52.3902642 12.8652794,55.2942619 13.4863763,61.7233543 C14.1074732,68.1524468 20.9543272,83.1918648 20.9543272,83.1918648 L22.9876802,82.7167996 L28.6163709,81.3932717 L29.3465295,81.2213609 L26.3556521,63.1762775 L30.0803851,58.5088081 Z" id="路径" fill="#51CBB4"></path>
                        <path d="M75.5202786,42.1624987 C75.5202786,42.1624987 81.897613,46.2846597 84.2452114,41.2290048 C86.0937141,37.251027 87.5115157,35.3951303 87.5115157,35.3951303 L96.0682347,39.3731081 C96.0682347,39.3731081 91.6318282,49.9391496 88.9903179,54.0613106 C86.3488075,58.1834717 84.7110341,61.1392275 75.3779439,57.9431663 C66.0448538,54.7471051 75.5202786,42.1624987 75.5202786,42.1624987 Z" id="路径" fill="#51CBB4"></path>
                        <path d="M33.1969606,56.7730641 L29.4592882,60.8933766 L11.3051431,50.7728243 C11.3051431,50.7728243 16.8506512,32.3210703 36.7904499,25.5278228 C36.7904499,25.5278228 45.5338677,30.091776 46.1568131,39.32135 C46.7797585,48.550924 45.5523527,105.386837 45.5523527,105.386837 C45.5523527,105.386837 32.4668021,109.017296 29.6663205,105.906266 C26.8658389,102.795236 20.7472949,107.046792 18.2573618,105.076288 C15.7674286,103.105784 16.0798256,105.076288 16.0798256,105.076288 L16.066886,90.9703642 L16.066886,86.5099272 L38.6334071,89.0793459 C38.6334071,89.0793459 42.0549856,89.2808327 42.4246862,86.0699835 C42.7943867,82.8591343 45.2381073,61.9544172 45.2381073,61.9544172 C45.2381073,61.9544172 45.748294,58.5901423 42.7629622,57.9191358 L33.1969606,56.7730641 Z" id="路径" fill="#FDFFFF"></path>
                        <path d="M49.1698725,25.3596091 C49.1698725,25.3596091 64.155684,26.2727694 77.7883915,42.0183155 C78.4612464,42.7965351 73.5534718,59.9617313 73.5534718,59.9617313 L68.8231533,57.8156196 L69.6716161,102.961601 C69.6716161,102.961601 66.3443112,107.161399 60.780318,104.34613 C59.1166656,103.501364 57.1498587,105.38314 56.0093326,105.902569 C54.8688064,106.421998 53.208851,106.42015 52.6912702,105.902569 C52.1736894,105.384988 50.7207663,106.291448 50.7207663,106.291448 L51.4453794,86.0921655 L52.8465444,38.1253688 C52.8465444,38.1253688 53.2014569,26.4335891 49.1698725,25.3596091 Z" id="路径" fill="#FDFFFF"></path>
                        <path d="M59.4993057,41.4600677 L60.1314936,41.3879761 L60.1093116,41.1938833 C59.7969146,38.4969178 59.2164848,33.4763845 57.0703731,29.2322222 C54.4066807,23.9676865 50.171761,21.5369055 44.4839182,22.0082737 C40.1935434,22.3631862 37.1860295,23.6719261 35.5482561,25.8901294 C33.9585438,28.043635 33.6110252,31.0197244 34.4835185,34.9866112 L35.1046154,34.849822 C34.2727892,31.0733309 34.5870347,28.2654553 36.0602913,26.2672239 C37.5853061,24.2024464 40.4356972,22.9842831 44.5375247,22.6441586 C57.2016168,21.5942091 58.8541782,35.886832 59.4771236,41.2678234 L59.4993057,41.4600677 Z" id="路径" fill="#448AC4"></path>
                        <path d="M42.1899263,17.3481983 C42.1899263,17.3481983 43.1585417,21.7846048 40.5170314,25.6664605 C40.0733907,26.3171335 43.4616962,30.6296903 46.5061801,30.0215329 C50.2031855,29.2821318 50.6283412,26.9382304 50.6283412,25.7829162 C50.6283412,25.6775515 49.1698725,25.3559121 49.1698725,25.3559121 L49.5395731,22.3613377 L42.1899263,17.3481983 Z" id="路径" fill="#E4BEAD"></path>
                        <path d="M42.1843808,17.8583851 C42.1843808,17.8583851 43.1231502,25.0405116 49.8630611,23.0261951 L49.8630611,22.3188221 L42.1843808,17.8583851 Z" id="路径" fill="#D4AC9A"></path>
                        <path d="M50.3436718,9.37745466 C47.5006746,8.77669128 44.6669199,10.2739785 43.2398758,12.8711248 C43.1706702,12.8739003 43.1013566,12.870187 43.0328435,12.8600338 C41.3691911,12.4089991 40.1140578,12.8064272 40.1140578,14.353624 C40.1140578,15.7381525 40.9847025,18.137509 42.306382,18.3630263 C42.9736915,20.9509301 45.1438336,23.1284663 47.413795,23.2800435 C50.524825,23.4870758 52.8132714,21.9361821 54.4381053,17.8528396 C55.8928769,14.2075922 53.8890999,10.1242498 50.3436718,9.37745466 Z" id="路径" fill="#EDC8B7"></path>
                        <path d="M52.3603882,1.19043617 C50.8132517,0.407335726 49.1034659,-0.000479844372 47.3694309,0 C46.967405,0.000668317195 46.5657038,0.0228822075 46.1660556,0.0665465212 C41.6671961,0.557473962 37.9178461,3.73253332 36.6924793,8.08904827 C37.2983312,11.1678844 39.8500949,13.4859968 42.9727914,13.7943061 C46.095488,14.1026155 49.0513066,12.3282763 50.2475496,9.42736423 C51.5184186,12.5563428 54.8215126,14.352966 58.1388077,13.7195875 C59.360977,8.70758247 56.9660172,3.51467234 52.3603882,1.19043617 Z" id="路径" fill="#4F5A59"></path>
                        <path d="M33.1969606,56.7730641 C33.1969606,56.7730641 36.0954129,52.5972965 36.511326,51.0427057 C36.9272391,49.4881149 37.6000941,46.5822687 37.6000941,46.5822687 C37.8385236,47.2166242 37.9950612,47.8788029 38.0659168,48.5527726 C38.221191,49.7968149 38.1694329,50.216425 38.0659168,51.9743511 C37.9624006,53.7322771 37.1324229,54.8265907 36.511326,55.5530523 C35.8902291,56.2795139 35.526074,56.9523689 35.161919,56.9523689 C34.797764,56.9523689 33.1969606,56.7730641 33.1969606,56.7730641 Z" id="路径" fill="#E8EDED"></path>
                        <path d="M68.8102138,62.0875094 L68.8102138,49.1997485 C68.8102138,49.1997485 68.0135091,53.944855 68.0393882,55.1149572 C68.0652672,56.2850594 68.1151768,56.6196384 68.0393882,57.7860436 C67.9635996,58.9524488 67.2870476,59.6530313 67.6512026,60.7935575 C68.0153576,61.9340837 68.8102138,62.0875094 68.8102138,62.0875094 Z" id="路径" fill="#E8EDED"></path>
                        <path d="M60.0261289,42.0904071 C60.6951842,42.0748755 61.3076988,42.4639552 61.5779938,43.0761781 C61.8482888,43.6884009 61.7231194,44.4031664 61.260865,44.8871055 C60.7986106,45.3710446 60.0903297,45.5288272 59.466367,45.2868629 C58.8424043,45.0448986 58.4256728,44.4508514 58.4105376,43.7817871 C58.3898821,42.868698 59.1130523,42.1116034 60.0261289,42.0904071 M59.9984014,40.9443354 C58.4536465,40.98148 57.2313042,42.2635366 57.2678255,43.8083064 C57.3043469,45.3530762 58.5859102,46.5759356 60.1306946,46.5400375 C61.675479,46.5041395 62.8988554,45.2230697 62.8635806,43.6782709 C62.8272538,42.1321556 61.5445207,40.90818 59.9984014,40.9443354 L59.9984014,40.9443354 Z" id="形状" fill="#FFD76B"></path>
                        <path d="M33.1415056,49.7635418 C33.1734859,49.7663239 33.2056474,49.7663239 33.2376277,49.7635418 L33.09899,48.7561078 C33.2280706,48.7350711 33.3596506,48.7746132 33.455751,48.863321 C33.0139589,48.3549828 30.738452,41.8501017 32.0712225,37.9885796 C32.5721667,36.5356564 33.4945696,35.6964362 34.8920376,35.4247063 C36.3948703,35.1326429 37.5686695,35.3747967 38.4818299,36.1641074 C41.0438546,38.3823107 40.7665792,44.3160043 40.6760026,46.2680232 C40.6612146,46.5952082 40.6501236,46.8096345 40.6538206,46.9464237 L41.6723456,46.9223932 C41.6723456,46.8207255 41.6723456,46.5989052 41.6926791,46.3160843 C41.7998922,44.0220924 42.0845617,37.931276 39.1472909,35.3951303 C37.9993707,34.4024843 36.5020835,34.0771478 34.6960963,34.4283634 C31.3447609,35.0808848 29.999051,38.4580993 30.9122113,43.9370613 C31.1324836,45.2629096 31.4626553,46.5681389 31.8993117,47.8392505 C32.4945296,49.5269335 32.8180176,49.7709358 33.1415056,49.7635418 Z" id="路径" fill="#448AC4"></path>
                        <circle id="椭圆形" fill="#53B4FF" cx="41.1621588" cy="46.9242417" r="1.24034532"></circle>
                        <circle id="椭圆形" fill="#53B4FF" cx="33.1673846" cy="49.2515066" r="1.24034532"></circle>
                    </g>
                </g>
            </g>
        </g>
    </g>
</svg>