<?xml version="1.0" encoding="UTF-8"?>
<svg width="28px" height="28px" viewBox="0 0 28 28" version="1.1" xmlns="http://www.w3.org/2000/svg" xmlns:xlink="http://www.w3.org/1999/xlink">
    <title>键盘</title>
    <g id="页面-1" stroke="none" stroke-width="1" fill="none" fill-rule="evenodd">
        <g id="4_语音-1" transform="translate(-15.000000, -740.000000)" fill-rule="nonzero">
            <g id="键盘" transform="translate(15.000000, 740.000000)">
                <rect id="矩形" fill="#000000" opacity="0" x="0" y="0" width="28" height="28"></rect>
                <path d="M14.0034139,27 C10.52734,27 7.26273338,25.6480923 4.80732053,23.1926795 C2.35190767,20.7372666 1,17.47266 1,13.9965861 C1,10.5205122 2.35190767,7.25577551 4.80732053,4.80036265 C9.87434067,-0.266787549 18.1326172,-0.266787549 23.1996374,4.80036265 C28.2667875,9.86751284 28.2667875,18.1256593 23.1996374,23.1926795 C20.7442245,25.6480923 17.4796178,27 14.003544,27 L14.0034139,27 Z M14.0034139,2.94267634 C11.1709755,2.94267634 8.3386672,4.02784396 6.18666951,6.17971163 C4.09917841,8.26733279 2.94963422,11.0353946 2.94963422,13.9965861 C2.94963422,16.9577775 4.09917841,19.7257093 6.18666951,21.8133305 C8.27429066,23.9008216 11.0514562,25.0594695 14.0034139,25.050419 C16.9647354,25.050419 19.7326672,23.9008216 21.8201583,21.8133305 C26.1332575,17.5002313 26.1332575,10.4928108 21.8201583,6.17984169 C19.6682907,4.02784399 16.8358523,2.94267634 14.0034139,2.94267634 L14.0034139,2.94267634 Z M8.03122037,8.73955757 L9.44880513,8.73955757 C9.78694461,8.73955757 10.0470519,8.99966485 10.0470519,9.32479898 L10.0470519,10.7423837 C10.0470519,11.0675179 9.78694461,11.3276251 9.46181048,11.3276251 L8.03122037,11.3276251 C7.70608624,11.3406305 7.44597896,11.0805232 7.44597896,10.7553891 L7.44597896,9.32479898 C7.44597896,8.99966485 7.70608624,8.73955757 8.03122037,8.73955757 Z M13.2333662,8.73955757 L14.650951,8.73955757 C14.9890905,8.73955757 15.2491978,8.99966485 15.2491978,9.32479898 L15.2491978,10.7423837 C15.2491978,11.0675179 14.9890905,11.3276251 14.6639564,11.3276251 L13.2333662,11.3276251 C12.9082321,11.3406305 12.6481248,11.0805232 12.6481248,10.7553891 L12.6481248,9.32479898 C12.6481248,8.99966485 12.9082321,8.73955757 13.2333662,8.73955757 Z M18.4355122,8.73955757 L19.8530969,8.73955757 C20.1912364,8.73955757 20.4513437,8.99966485 20.4513437,9.32479898 L20.4513437,10.7423837 C20.4513437,11.0675179 20.1912364,11.3276251 19.8661023,11.3276251 L18.4355122,11.3276251 C18.110378,11.3406305 17.8502707,11.0805232 17.8502707,10.7553891 L17.8502707,9.32479898 C17.8502707,8.99966485 18.110378,8.73955757 18.4355122,8.73955757 L18.4355122,8.73955757 Z M8.03122037,12.641167 L9.44880513,12.641167 C9.77393926,12.641167 10.0340465,12.9012742 10.0340465,13.2264084 L10.0340465,14.6439931 C10.0340465,14.9691273 9.77393926,15.2292345 9.44880513,15.2292345 L8.03122037,15.2292345 C7.70608624,15.2422399 7.44597896,14.9821326 7.44597896,14.6569985 L7.44597896,13.2264084 C7.44597896,12.9012742 7.70608624,12.641167 8.03122037,12.641167 Z M13.2333662,12.641167 L14.650951,12.641167 C14.9760851,12.641167 15.2361924,12.9012742 15.2361924,13.2264084 L15.2361924,14.6439931 C15.2361924,14.9691273 14.9760851,15.2292345 14.650951,15.2292345 L13.2333662,15.2292345 C12.9082321,15.2422399 12.6481248,14.9821326 12.6481248,14.6569985 L12.6481248,13.2264084 C12.6481248,12.9012742 12.9082321,12.641167 13.2333662,12.641167 Z M18.4355122,12.641167 L19.8530969,12.641167 C20.178231,12.641167 20.4383383,12.9012742 20.4383383,13.2264084 L20.4383383,14.6439931 C20.4383383,14.9691273 20.178231,15.2292345 19.8530969,15.2292345 L18.4355122,15.2292345 C18.110378,15.2422399 17.8502707,14.9821326 17.8502707,14.6569985 L17.8502707,13.2264084 C17.8502707,12.9012742 18.110378,12.641167 18.4355122,12.641167 L18.4355122,12.641167 Z M12.3229907,18.4935811 L15.5743319,18.4935811 C16.1075519,18.4935811 16.5497343,18.9357635 16.5497343,19.4689834 C16.5497343,20.0022034 16.1075519,20.4443858 15.5743319,20.4443858 L12.3229907,20.4443858 C11.7897708,20.4443858 11.3475884,20.0022034 11.3475884,19.4689834 C11.3475884,18.9357635 11.7897708,18.4935811 12.3229907,18.4935811 Z" id="形状" fill="#323233"></path>
            </g>
        </g>
    </g>
</svg>