<?xml version="1.0" encoding="UTF-8"?>
<svg width="300px" height="286px" viewBox="0 0 300 286" version="1.1" xmlns="http://www.w3.org/2000/svg" xmlns:xlink="http://www.w3.org/1999/xlink">
    <title>形状结合</title>
    <defs>
        <rect id="path-1" x="0" y="0" width="260" height="246" rx="20"></rect>
        <filter x="-11.5%" y="-12.2%" width="123.1%" height="124.4%" filterUnits="objectBoundingBox" id="filter-3">
            <feOffset dx="0" dy="0" in="SourceAlpha" result="shadowOffsetOuter1"></feOffset>
            <feGaussianBlur stdDeviation="10" in="shadowOffsetOuter1" result="shadowBlurOuter1"></feGaussianBlur>
            <feColorMatrix values="0 0 0 0 0   0 0 0 0 0   0 0 0 0 0  0 0 0 0.06 0" type="matrix" in="shadowBlurOuter1"></feColorMatrix>
        </filter>
    </defs>
    <g id="页面-1" stroke="none" stroke-width="1" fill="none" fill-rule="evenodd">
        <g id="4" transform="translate(-37.000000, -236.000000)">
            <g id="形状结合" transform="translate(57.000000, 256.000000)">
                <mask id="mask-2" fill="white">
                    <use xlink:href="#path-1"></use>
                </mask>
                <g id="蒙版">
                    <use fill="black" fill-opacity="1" filter="url(#filter-3)" xlink:href="#path-1"></use>
                    <use fill="#FFFFFF" fill-rule="evenodd" xlink:href="#path-1"></use>
                </g>
                <path d="M466,-98.2016129 L465.998211,69.0806775 C431.809231,82.5178775 417.931975,109.112903 363,109.112903 C289.5,109.112903 289.5,61.5 216,61.5 C142.5,61.5 142.5,101.177419 69,101.177419 C20.9414652,101.177419 4.30636943,88.4549605 -21.9981972,79.6473961 L-22,-98.2016129 L466,-98.2016129 Z" fill-opacity="0.16" fill="#0EC28F" mask="url(#mask-2)"></path>
                <path d="M438,-26.7822581 L437.996571,75.0052136 C420.252468,77.580604 405.763651,80.9213184 391.408684,84.2935013 L387.716316,85.1613528 C357.553944,92.2469169 326.800625,99.1935484 266.5,99.1935484 C206.199375,99.1935484 175.446056,92.2469169 145.283684,85.1613528 L141.591316,84.2935013 C111.428944,77.2079372 80.675625,70.2613058 20.375,70.2613058 C-102.6875,70.2613058 -102.6875,94.3715079 -225.75,94.3715079 C-286.050625,94.3715079 -316.803944,90.0298633 -346.966316,85.6013857 L-350.658684,85.0589785 C-359.78399,83.7191895 -368.963386,82.3873483 -378.998715,81.1812769 L-379,-26.7822581 L438,-26.7822581 Z" fill-opacity="0.16" fill="#0EC28F" mask="url(#mask-2)"></path>
                <path d="M314,-26.7822581 L313.995918,74.9479642 C297.363857,77.5309879 283.819174,80.8962757 270.400541,84.2935013 L266.974459,85.1613528 C238.987331,92.2469169 210.451875,99.1935484 154.5,99.1935484 C98.548125,99.1935484 70.0126688,92.2469169 42.0255409,85.1613528 L38.5994591,84.2935013 C10.6123313,77.2079372 -17.923125,70.2613058 -73.875,70.2613058 C-188.0625,70.2613058 -188.0625,94.3715079 -302.25,94.3715079 C-358.201875,94.3715079 -386.737331,90.0298633 -414.724459,85.6013857 L-418.150541,85.0589785 C-426.481464,83.7407544 -434.860973,82.4302244 -443.997733,81.2396121 L-444,-26.7822581 L314,-26.7822581 Z" fill-opacity="0.16" fill="#0EC28F" mask="url(#mask-2)"></path>
            </g>
        </g>
    </g>
</svg>