<?xml version="1.0" encoding="UTF-8"?>
<svg width="24px" height="24px" viewBox="0 0 24 24" version="1.1" xmlns="http://www.w3.org/2000/svg" xmlns:xlink="http://www.w3.org/1999/xlink">
    <title>发送</title>
    <defs>
        <linearGradient x1="-2.22044605e-14%" y1="50%" x2="100%" y2="50%" id="linearGradient-1">
            <stop stop-color="#3ECC92" offset="0%"></stop>
            <stop stop-color="#01BF8E" offset="100%"></stop>
        </linearGradient>
    </defs>
    <g id="页面-1" stroke="none" stroke-width="1" fill="none" fill-rule="evenodd">
        <g id="1" transform="translate(-331.000000, -742.000000)">
            <g id="发送" transform="translate(331.000000, 742.000000)">
                <rect id="矩形" fill="#000000" fill-rule="nonzero" opacity="0" x="0" y="0" width="24" height="24"></rect>
                <path d="M0.577714289,9.36 L22.6285714,0.171428578 C22.8678308,0.0717069114 23.1428723,0.115422243 23.3394224,0.284411838 C23.5359725,0.453401433 23.6204337,0.718778833 23.5577143,0.970285711 L18.0651429,22.9422857 C18.0077564,23.1710369 17.8368437,23.354246 17.612624,23.4273611 C17.3884043,23.5004762 17.1423451,23.4532362 16.9611429,23.3022857 L12.192,19.3285714 C11.9192836,19.1016932 11.5185445,19.1202804 11.268,19.3714286 L8.82171429,21.816 C8.62565489,22.0109011 8.33173345,22.0690076 8.07625972,21.9633719 C7.82078599,21.8577361 7.65373211,21.609021 7.65257142,21.3325714 L7.65257142,16.1657143 C7.65242837,15.9837968 7.72457927,15.809278 7.85314287,15.6805714 L17.8011429,5.73257142 L6.05657142,14.5422857 C5.80221825,14.7327762 5.45031114,14.7235529 5.20628571,14.52 L0.402857133,10.5188571 C0.2190513,10.3653416 0.128652055,10.1270553 0.164382455,9.89025381 C0.200112856,9.65345235 0.356795678,9.4524476 0.577714289,9.36 Z" id="路径" fill="url(#linearGradient-1)"></path>
            </g>
        </g>
    </g>
</svg>