<?xml version="1.0" encoding="UTF-8"?>
<svg width="12px" height="12px" viewBox="0 0 12 12" version="1.1" xmlns="http://www.w3.org/2000/svg" xmlns:xlink="http://www.w3.org/1999/xlink">
    <title>导航地址备份 7</title>
    <g id="页面-1" stroke="none" stroke-width="1" fill="none" fill-rule="evenodd">
        <g id="7-2" transform="translate(-331.000000, -270.000000)" fill-rule="nonzero">
            <g id="编组-2" transform="translate(16.000000, 100.000000)">
                <g id="编组-3" transform="translate(16.000000, 64.000000)">
                    <g id="导航地址备份-7" transform="translate(299.000000, 106.000000)">
                        <rect id="矩形" fill="#000000" opacity="0" x="0" y="0.00101911055" width="11.998811" height="11.998811"></rect>
                        <path d="M5.99294921,2.50692464 C7.15314202,2.50692464 8.09366412,3.44744674 8.09366412,4.60763955 C8.09366412,5.76783236 7.15314202,6.70835446 5.99294921,6.70835446 C4.83275641,6.70835446 3.89223431,5.76783236 3.89223431,4.60763955 C3.89223431,3.44744674 4.83275641,2.50692464 5.99294921,2.50692464 Z M10.6014156,4.60856253 C10.6014156,2.64053917 9.35153095,0.889735472 7.49028225,0.250306618 C5.62903356,-0.389122236 3.56712134,0.223945506 2.35758742,1.77640924 C1.14805349,3.32887297 1.05784162,5.47810443 2.13302401,7.12646688 L5.58037471,11.7229345 C5.65844243,11.8795718 5.81839693,11.9785709 5.99341071,11.9785709 C6.16842449,11.9785709 6.32837899,11.8795718 6.40644671,11.7229345 L9.8602583,7.12646688 C10.325443,6.40100031 10.6014156,5.53893188 10.6014156,4.60856253 Z" id="形状" fill="#01BF8E"></path>
                    </g>
                </g>
            </g>
        </g>
    </g>
</svg>