<?xml version="1.0" encoding="UTF-8"?>
<svg width="56px" height="56px" viewBox="0 0 56 56" version="1.1" xmlns="http://www.w3.org/2000/svg" xmlns:xlink="http://www.w3.org/1999/xlink">
    <title>听诊器</title>
    <g id="页面-1" stroke="none" stroke-width="1" fill="none" fill-rule="evenodd">
        <g id="9_重新导诊" transform="translate(-159.000000, -282.000000)" fill-rule="nonzero">
            <g id="编组" transform="translate(57.000000, 256.000000)">
                <g id="听诊器" transform="translate(102.000000, 26.000000)">
                    <rect id="矩形" fill="#000000" opacity="0" x="0" y="0" width="56" height="56"></rect>
                    <path d="M40.840625,26.9554687 C40.81875,26.3210937 40.2828125,25.8234375 39.6484375,25.8453125 L39.15625,25.8617187 L39.1398437,25.3695312 C39.1179688,24.7351562 38.5820312,24.2375 37.9476562,24.259375 C37.3132813,24.28125 36.815625,24.8171875 36.8375,25.4515625 L36.8921875,27.0976562 C36.9140625,27.7320312 37.45,28.2296875 38.084375,28.2078125 L39.7304688,28.153125 C40.3648438,28.1257812 40.8625,27.5898437 40.840625,26.9554687 L40.840625,26.9554687 Z M10.6859375,6.4859375 L8.56953125,6.4859375 L8.56953125,4.375 C8.56953125,3.98671875 8.25234375,3.66953125 7.8640625,3.66953125 C7.47578125,3.66953125 7.15859375,3.98671875 7.15859375,4.375 L7.15859375,6.49140625 L5.04765625,6.49140625 C4.659375,6.49140625 4.3421875,6.80859375 4.3421875,7.196875 C4.3421875,7.58515625 4.659375,7.90234375 5.04765625,7.90234375 L7.1640625,7.90234375 L7.1640625,10.0132812 C7.1640625,10.4015625 7.48125,10.71875 7.86953125,10.71875 C8.2578125,10.71875 8.575,10.4015625 8.575,10.0132812 L8.575,7.90234375 L10.6859375,7.90234375 C11.0742187,7.90234375 11.3914062,7.58515625 11.3914062,7.196875 C11.3914062,6.803125 11.0742187,6.4859375 10.6859375,6.4859375 Z" id="形状" fill="#FF9C53"></path>
                    <path d="M5.73125,14.35 C5.4140625,14.0328125 4.8890625,14.0328125 4.56640625,14.35 L4.31484375,14.6015625 L4.06328125,14.35 C3.74609375,14.0328125 3.22109375,14.0328125 2.8984375,14.35 C2.57578125,14.6671875 2.58125,15.1921875 2.8984375,15.5148437 L3.7296875,16.3460937 C4.046875,16.6632812 4.571875,16.6632812 4.89453125,16.3460937 L5.72578125,15.5148437 C6.0484375,15.1921875 6.0484375,14.6671875 5.73125,14.35 L5.73125,14.35 Z" id="路径" fill="#FF9C53" opacity="0.47"></path>
                    <path d="M18.0578125,5.76953125 C17.084375,5.76953125 16.296875,4.98203125 16.296875,4.00859375 C16.296875,3.03515625 17.084375,2.24765625 18.0578125,2.24765625 C19.03125,2.24765625 19.81875,3.03515625 19.81875,4.00859375 C19.81875,4.98203125 19.0257812,5.76953125 18.0578125,5.76953125 Z M18.0578125,2.953125 C17.4726562,2.953125 17.0023437,3.42890625 17.0023437,4.00859375 C17.0023437,4.58828125 17.478125,5.0640625 18.0578125,5.0640625 C18.6375,5.0640625 19.1132812,4.58828125 19.1132812,4.00859375 C19.1132812,3.42890625 18.6375,2.953125 18.0578125,2.953125 Z" id="形状" fill="#FF9C53" opacity="0.47"></path>
                    <path d="M49.896875,50.4164062 C48.4148437,51.5976562 46.4570312,51.8054687 45.5273437,50.8867187 C44.5976562,49.9625 45.0460937,48.25625 46.528125,47.075 C48.0101562,45.89375 49.9679687,45.6859375 50.8976562,46.6046875 C51.8273437,47.5234375 51.3789062,49.2351562 49.896875,50.4164062 Z" id="路径" fill="#FFCE44" opacity="0.47"></path>
                    <path d="M28.7054687,14.940625 L30.4609375,14.940625 C31.7789062,14.940625 32.8507812,16.0125 32.8507812,17.3304687 L32.8507812,25.4898437 C32.8507812,30.93125 28.4375,35.3445312 22.9851563,35.3445312 C17.5382812,35.3445312 13.1195312,30.93125 13.1195312,25.4898437 L13.1195312,17.3304687 C13.1195312,16.0125 14.1914062,14.940625 15.509375,14.940625 L17.3742188,14.940625" id="路径" fill="#FFCE44" opacity="0.47"></path>
                    <path d="M15.225,22.6460937 C14.8367187,22.6460937 14.5195312,22.3289062 14.5195312,21.940625 L14.5195312,18.659375 C14.5195312,17.3960937 15.5476562,16.3734375 16.8109375,16.3734375 L18.046875,16.3734375 C18.4351562,16.3734375 18.7523437,16.690625 18.7523437,17.0789062 C18.7523437,17.4671875 18.4351562,17.784375 18.046875,17.784375 L16.8109375,17.784375 C16.3242188,17.784375 15.9304687,18.178125 15.9304687,18.6648437 L15.9304687,21.9460937 C15.9304687,22.3289062 15.6132812,22.6460937 15.225,22.6460937 Z" id="路径" fill="#FFFFFF"></path>
                    <path d="M33.20625,24.0898437 C35.9570312,22.5148437 30.3898438,35.3609375 22.990625,35.350007 C20.25625,35.350007 17.784375,34.2398437 15.9960938,32.4460937 C24.7515625,34.6554687 27.9179688,29.0226562 33.20625,24.0898437 L33.20625,24.0898437 Z" id="路径" fill="#FF9C53"></path>
                    <path d="M47.29375,52.7953125 C46.8835937,52.7953125 46.4953125,52.6367187 46.2054687,52.346875 L42.5796875,48.7265625 C41.7921875,47.9390625 41.475,46.76875 41.759375,45.6859375 C42.0546875,44.559375 42.9078125,43.7226562 44.1054687,43.3890625 C45.1007812,43.1101562 46.2054687,43.421875 46.9875,44.2039062 L47.29375,44.5101562 L47.6,44.2039062 C48.3820312,43.421875 49.48125,43.1101562 50.4820312,43.3890625 C51.6796875,43.7226562 52.5328125,44.559375 52.828125,45.6859375 C53.1125,46.7742187 52.8007812,47.9390625 52.0078125,48.7265625 L48.3875,52.346875 C48.0921875,52.6367187 47.709375,52.7953125 47.29375,52.7953125 L47.29375,52.7953125 Z M44.8492187,44.6960937 C44.7289062,44.6960937 44.6085937,44.7125 44.4882812,44.7453125 C43.7882812,44.9421875 43.290625,45.4125 43.1265625,46.0414062 C42.9679687,46.6429687 43.1429687,47.29375 43.5804687,47.73125 L47.2007812,51.3515625 C47.2664062,51.4117187 47.3265625,51.4117187 47.3867187,51.3515625 L51.0070312,47.73125 C51.4445312,47.29375 51.6140625,46.6484375 51.4609375,46.0414062 C51.296875,45.4125 50.7992187,44.9367187 50.0992187,44.7453125 C49.590625,44.603125 49.0164062,44.778125 48.5953125,45.1992187 L48.2179687,45.5765625 C47.709375,46.0851562 46.878125,46.0851562 46.3695312,45.5765625 L45.9921875,45.1992187 C45.6695312,44.8710937 45.2539062,44.6960937 44.8492187,44.6960937 L44.8492187,44.6960937 Z M9.953125,15.3398437 C9.56484375,15.3398437 9.24765625,15.0226562 9.24765625,14.634375 L9.24765625,13.7648438 C9.24765625,11.8234375 10.828125,10.2429688 12.7695312,10.2429688 L14.9625,10.2429688 C15.3507812,10.2429688 15.6679687,10.5601563 15.6679687,10.9484375 C15.6679687,11.3367188 15.3507812,11.6539063 14.9625,11.6539063 L12.7695312,11.6539063 C11.6046875,11.6539063 10.6585937,12.6 10.6585937,13.7648438 L10.6585937,14.634375 C10.6585937,15.028125 10.3414062,15.3398437 9.953125,15.3398437 L9.953125,15.3398437 Z M9.953125,19.9554687 C9.56484375,19.9554687 9.24765625,19.6382812 9.24765625,19.25 L9.24765625,17.4726562 C9.24765625,17.084375 9.56484375,16.7671875 9.953125,16.7671875 C10.3414062,16.7671875 10.6585937,17.084375 10.6585937,17.4726562 L10.6585937,19.25 C10.6585937,19.6382812 10.3414062,19.9554687 9.953125,19.9554687 Z M21.5796875,36.5257812 C14.7820312,36.5257812 9.253125,30.996875 9.253125,24.1992187 L9.253125,22.4546875 C9.253125,22.0664062 9.5703125,21.7492187 9.95859375,21.7492187 C10.346875,21.7492187 10.6640625,22.0664062 10.6640625,22.4546875 L10.6640625,24.1992187 C10.6640625,30.2203125 15.5640625,35.1203125 21.5851562,35.1203125 C27.60625,35.1203125 32.50625,30.2203125 32.50625,24.1992187 L32.50625,13.7648437 C32.50625,12.6 31.5601562,11.6539062 30.3953125,11.6539062 L28.328125,11.6539062 C27.9398437,11.6539062 27.6226562,11.3367187 27.6226562,10.9484375 C27.6226562,10.5601563 27.9398437,10.2429687 28.328125,10.2429687 L30.3953125,10.2429687 C32.3367187,10.2429687 33.9171875,11.8234375 33.9171875,13.7648437 L33.9171875,24.19375 C33.90625,30.9914062 28.3773437,36.5257812 21.5796875,36.5257812 L21.5796875,36.5257812 Z" id="形状" fill="#000000"></path>
                    <path d="M26.7421875,46.6648437 C26.5234375,46.6648437 26.3046875,46.6539062 26.0804687,46.6265625 C24.4070312,46.440625 23.1109375,45.7132812 22.2195312,44.4554687 C20.0210937,41.3546875 21.1914062,36.1265625 21.2460937,35.9023437 C21.3335937,35.525 21.7109375,35.2898437 22.0882812,35.3773437 C22.465625,35.4648437 22.70625,35.8421875 22.61875,36.2195312 C22.6078125,36.26875 21.5359375,41.059375 23.3734375,43.640625 C24.0296875,44.5648437 24.9648437,45.084375 26.2390625,45.2210937 C29.1703125,45.5492187 31.9320312,42.8640625 34.60625,40.2773437 C37.296875,37.6742187 40.075,34.9726562 43.159375,35.3609375 C44.6359375,35.546875 45.8171875,36.2140625 46.6648437,37.3570312 C48.8140625,40.2390625 48.0265625,45.128125 47.99375,45.3359375 C47.928125,45.71875 47.5726562,45.9757812 47.184375,45.915625 C46.8015625,45.85 46.5390625,45.4890625 46.6046875,45.10625 C46.6101562,45.0625 47.3265625,40.5945312 45.5328125,38.1992187 C44.9148437,37.3679687 44.078125,36.903125 42.984375,36.7609375 C40.5726562,36.465625 38.15,38.80625 35.5851562,41.2890625 C32.8507812,43.9359375 30.034375,46.6648437 26.7421875,46.6648437 L26.7421875,46.6648437 Z M16.646875,13.7320312 C15.4601562,13.7320312 14.5359375,12.55625 14.5359375,11.0523437 C14.5359375,9.5484375 15.465625,8.37265625 16.646875,8.37265625 C17.828125,8.37265625 18.7578125,9.5484375 18.7578125,11.0523437 C18.7578125,12.55625 17.8335937,13.7320312 16.646875,13.7320312 Z M16.646875,9.7890625 C16.3132812,9.7890625 15.9414062,10.3304687 15.9414062,11.0578125 C15.9414062,11.7851562 16.3132812,12.3265625 16.646875,12.3265625 C16.9804687,12.3265625 17.3523437,11.7851562 17.3523437,11.0578125 C17.3523437,10.3304687 16.9804687,9.7890625 16.646875,9.7890625 Z M26.5125,13.7320312 C25.3257812,13.7320312 24.4015625,12.55625 24.4015625,11.0523437 C24.4015625,9.5484375 25.33125,8.37265625 26.5125,8.37265625 C27.69375,8.37265625 28.6234375,9.5484375 28.6234375,11.0523437 C28.6234375,12.55625 27.69375,13.7320312 26.5125,13.7320312 L26.5125,13.7320312 Z M26.5125,9.7890625 C26.1789062,9.7890625 25.8070313,10.3304687 25.8070313,11.0578125 C25.8070313,11.7851562 26.1789062,12.3265625 26.5125,12.3265625 C26.8460937,12.3265625 27.2179687,11.7851562 27.2179687,11.0578125 C27.2179687,10.3304687 26.840625,9.7890625 26.5125,9.7890625 Z" id="形状" fill="#000000"></path>
                </g>
            </g>
        </g>
    </g>
</svg>